<svg width="144" height="42" viewBox="0 0 144 42" fill="none" xmlns="http://www.w3.org/2000/svg">
<path d="M15.3419 4.91457C15.9388 4.91872 16.5353 4.92287 17.1047 4.92287H22.8985C23.4679 4.92287 24.0644 4.91872 24.6613 4.91457C26.2681 4.90339 27.8773 4.89219 28.9664 4.96194C32.9313 5.21584 35.6657 7.61819 36.0172 11.7002C36.1006 13.1671 36.0986 14.9341 36.0962 17.018C36.0958 17.3757 36.0954 17.7433 36.0954 18.1197V23.9135C36.0954 24.2899 36.0958 24.6569 36.0962 25.0146C36.0986 27.0988 36.1006 28.866 36.0172 30.333C35.6657 34.4151 32.9313 36.8174 28.9664 37.0713C27.8773 37.1411 26.2681 37.1299 24.6613 37.1187C24.0644 37.1145 23.4679 37.1104 22.8985 37.1104H17.1047C16.5353 37.1104 15.9388 37.1145 15.3419 37.1187C13.7351 37.1299 12.1259 37.1411 11.0368 37.0713C7.07192 36.8174 4.33754 34.4151 3.98598 30.333C3.90263 28.8662 3.90464 27.0991 3.90701 25.0152C3.90742 24.6575 3.90784 24.2899 3.90784 23.9135V18.1197C3.90784 17.7433 3.90742 17.3763 3.90701 17.0186C3.90464 14.9347 3.90263 13.1671 3.98598 11.7002C4.33754 7.61819 7.07192 5.21584 11.0368 4.96194C12.1259 4.89219 13.7351 4.90339 15.3419 4.91457Z" fill="url(#paint0_linear_2004_594)"/>
<g filter="url(#filter0_dddddd_2004_594)">
<path d="M9.14062 16.3906C9.14062 15.5708 9.8052 14.9062 10.625 14.9062H21.0156C23.0867 14.9062 24.7656 16.5852 24.7656 18.6562V25.5703C24.7656 26.3901 24.101 27.0548 23.2812 27.0548H12.8906C10.8196 27.0548 9.14062 25.3759 9.14062 23.3048V16.3906Z" fill="url(#paint1_linear_2004_594)"/>
<path d="M9.31641 16.3906C9.31641 15.6679 9.90228 15.082 10.625 15.082H21.0156C22.9896 15.082 24.5898 16.6823 24.5898 18.6562V25.5703C24.5898 26.293 24.004 26.8789 23.2812 26.8789H12.8906C10.9166 26.8789 9.31641 25.2787 9.31641 23.3047V16.3906Z" stroke="url(#paint2_linear_2004_594)" stroke-width="0.351562"/>
</g>
<g filter="url(#filter1_dddddd_2004_594)">
<path d="M25.7031 19.2073C25.7031 18.702 25.9205 18.2212 26.2999 17.8875L29.2769 15.2687C29.9077 14.7137 30.8984 15.1617 30.8984 16.0019V25.9888C30.8984 26.8212 29.9239 27.272 29.2896 26.733L26.5569 24.4113C26.0153 23.9511 25.7031 23.2763 25.7031 22.5656V19.2073Z" fill="url(#paint3_linear_2004_594)"/>
<path d="M25.8789 19.2069C25.8789 18.7522 26.0746 18.3194 26.416 18.0191L29.393 15.4003C29.9103 14.9452 30.7227 15.3125 30.7227 16.0015V25.9884C30.7227 26.6709 29.9235 27.0406 29.4034 26.5987L26.6707 24.2769C26.1684 23.8502 25.8789 23.2243 25.8789 22.5652V19.2069Z" stroke="url(#paint4_linear_2004_594)" stroke-width="0.351562"/>
</g>
<path d="M72.848 15.544L67.64 30.232L63.008 31.456L59.744 22.312L57.32 30.232L52.664 31.456L46.256 15.016L43.832 13.864L44.696 12.136H52.832V13.648L51.152 14.872L55.856 27.16L58.448 18.76L57.104 14.992L54.92 13.864L55.784 12.136H64.592V13.648L62.12 15.088L66.296 27.184L70.28 15.736L66.632 13.864L67.496 12.136H75.368L75.392 13.648L72.848 15.544ZM81.7411 17.776C83.4691 17.776 84.8051 18.432 85.7491 19.744C86.7091 21.04 87.1731 22.872 87.1411 25.24H78.5731C78.7491 26.088 79.0771 26.768 79.5571 27.28C80.0371 27.776 80.6611 28.024 81.4291 28.024C82.5651 28.024 84.2211 27.536 86.3971 26.56L87.1171 28.048L83.6611 30.832C82.6531 31.104 81.4451 31.24 80.0371 31.24C78.8371 31.24 77.7571 30.968 76.7971 30.424C75.8371 29.864 75.0851 29.104 74.5411 28.144C74.0131 27.184 73.7491 26.112 73.7491 24.928C73.7491 23.648 74.1651 22.464 74.9971 21.376C75.8291 20.272 76.8691 19.4 78.1171 18.76C79.3651 18.104 80.5731 17.776 81.7411 17.776ZM80.4451 20.776C79.7891 20.776 79.2931 21 78.9571 21.448C78.6371 21.88 78.4611 22.552 78.4291 23.464H82.7011C82.6051 22.552 82.3891 21.88 82.0531 21.448C81.7171 21 81.1811 20.776 80.4451 20.776ZM99.5015 17.776C100.526 17.776 101.446 18.056 102.262 18.616C103.078 19.16 103.71 19.92 104.158 20.896C104.622 21.856 104.854 22.92 104.854 24.088C104.854 25.352 104.438 26.536 103.606 27.64C102.774 28.744 101.726 29.624 100.462 30.28C99.2135 30.92 98.0055 31.24 96.8375 31.24C96.2135 31.24 95.6215 31.12 95.0615 30.88C94.5175 30.64 94.0295 30.304 93.5975 29.872L92.4695 31H90.7895V15.016L88.6535 13.6V12.064L93.5255 10.048H95.2295V19.984L97.7495 17.968C98.2615 17.84 98.8455 17.776 99.5015 17.776ZM98.2295 28.24C99.5255 28.24 100.174 27.232 100.174 25.216C100.174 24.032 99.9815 23.064 99.5975 22.312C99.2295 21.544 98.6775 21.16 97.9415 21.16C96.9655 21.16 96.0615 21.4 95.2295 21.88V25.768C95.2295 26.472 95.4855 27.064 95.9975 27.544C96.5255 28.008 97.2695 28.24 98.2295 28.24ZM122.596 31H107.212V29.464L109.468 27.688V14.632L106.78 13.864L107.644 12.136H122.356L124.228 11.704V17.992L122.716 18.64L119.74 14.2H114.22V20.344H116.812L118.564 17.752H120.1V24.664L118.348 25.528L116.764 22.384H114.22V28.936H119.524L122.956 24.016L124.468 24.64V31.432L122.596 31ZM142.523 31.024H136.787V29.224L134.483 31.072C133.971 31.2 133.379 31.264 132.707 31.264C131.651 31.264 130.699 30.992 129.851 30.448C129.019 29.888 128.363 29.128 127.883 28.168C127.419 27.192 127.187 26.12 127.187 24.952C127.187 23.672 127.603 22.488 128.435 21.4C129.267 20.296 130.307 19.424 131.555 18.784C132.803 18.128 134.011 17.8 135.179 17.8C135.755 17.8 136.291 17.936 136.787 18.208V15.016L134.651 13.6V12.064L139.523 10.048H141.227V28.552L143.387 29.272L142.523 31.024ZM134.243 27.664C135.171 27.664 136.019 27.472 136.787 27.088V22.768C136.691 22.192 136.387 21.72 135.875 21.352C135.363 20.984 134.667 20.8 133.787 20.8C132.507 20.8 131.867 21.808 131.867 23.824C131.867 24.944 132.067 25.872 132.467 26.608C132.883 27.328 133.483 27.688 134.267 27.688L134.243 27.664Z" fill="url(#paint5_linear_2004_594)"/>
<defs>
<filter id="filter0_dddddd_2004_594" x="6.32812" y="13.8516" width="21.25" height="17.7734" filterUnits="userSpaceOnUse" color-interpolation-filters="sRGB">
<feFlood flood-opacity="0" result="BackgroundImageFix"/>
<feColorMatrix in="SourceAlpha" type="matrix" values="0 0 0 0 0 0 0 0 0 0 0 0 0 0 0 0 0 0 127 0" result="hardAlpha"/>
<feOffset dy="0.0964726"/>
<feGaussianBlur stdDeviation="0.0355378"/>
<feColorMatrix type="matrix" values="0 0 0 0 0.0509804 0 0 0 0 0.121569 0 0 0 0 0.396078 0 0 0 0.189957 0"/>
<feBlend mode="multiply" in2="BackgroundImageFix" result="effect1_dropShadow_2004_594"/>
<feColorMatrix in="SourceAlpha" type="matrix" values="0 0 0 0 0 0 0 0 0 0 0 0 0 0 0 0 0 0 127 0" result="hardAlpha"/>
<feOffset dy="0.189277"/>
<feGaussianBlur stdDeviation="0.0790384"/>
<feColorMatrix type="matrix" values="0 0 0 0 0.0509804 0 0 0 0 0.121569 0 0 0 0 0.396078 0 0 0 0.368551 0"/>
<feBlend mode="multiply" in2="effect1_dropShadow_2004_594" result="effect2_dropShadow_2004_594"/>
<feColorMatrix in="SourceAlpha" type="matrix" values="0 0 0 0 0 0 0 0 0 0 0 0 0 0 0 0 0 0 127 0" result="hardAlpha"/>
<feOffset dy="0.29109"/>
<feGaussianBlur stdDeviation="0.135364"/>
<feColorMatrix type="matrix" values="0 0 0 0 0.0509804 0 0 0 0 0.121569 0 0 0 0 0.396078 0 0 0 0.3 0"/>
<feBlend mode="multiply" in2="effect2_dropShadow_2004_594" result="effect3_dropShadow_2004_594"/>
<feColorMatrix in="SourceAlpha" type="matrix" values="0 0 0 0 0 0 0 0 0 0 0 0 0 0 0 0 0 0 127 0" result="hardAlpha"/>
<feOffset dy="0.427121"/>
<feGaussianBlur stdDeviation="0.429883"/>
<feColorMatrix type="matrix" values="0 0 0 0 0.0509804 0 0 0 0 0.121569 0 0 0 0 0.396078 0 0 0 0.3 0"/>
<feBlend mode="multiply" in2="effect3_dropShadow_2004_594" result="effect4_dropShadow_2004_594"/>
<feColorMatrix in="SourceAlpha" type="matrix" values="0 0 0 0 0 0 0 0 0 0 0 0 0 0 0 0 0 0 127 0" result="hardAlpha"/>
<feOffset dy="0.664616"/>
<feGaussianBlur stdDeviation="0.799219"/>
<feColorMatrix type="matrix" values="0 0 0 0 0.0509804 0 0 0 0 0.121569 0 0 0 0 0.396078 0 0 0 0.29 0"/>
<feBlend mode="overlay" in2="effect4_dropShadow_2004_594" result="effect5_dropShadow_2004_594"/>
<feColorMatrix in="SourceAlpha" type="matrix" values="0 0 0 0 0 0 0 0 0 0 0 0 0 0 0 0 0 0 127 0" result="hardAlpha"/>
<feOffset dy="1.75781"/>
<feGaussianBlur stdDeviation="1.40625"/>
<feColorMatrix type="matrix" values="0 0 0 0 0.0509804 0 0 0 0 0.121569 0 0 0 0 0.396078 0 0 0 0.45 0"/>
<feBlend mode="multiply" in2="effect5_dropShadow_2004_594" result="effect6_dropShadow_2004_594"/>
<feBlend mode="normal" in="SourceGraphic" in2="effect6_dropShadow_2004_594" result="shape"/>
</filter>
<filter id="filter1_dddddd_2004_594" x="22.8906" y="13.9687" width="10.8203" height="17.5684" filterUnits="userSpaceOnUse" color-interpolation-filters="sRGB">
<feFlood flood-opacity="0" result="BackgroundImageFix"/>
<feColorMatrix in="SourceAlpha" type="matrix" values="0 0 0 0 0 0 0 0 0 0 0 0 0 0 0 0 0 0 127 0" result="hardAlpha"/>
<feOffset dy="0.0964726"/>
<feGaussianBlur stdDeviation="0.0355378"/>
<feColorMatrix type="matrix" values="0 0 0 0 0.0509804 0 0 0 0 0.121569 0 0 0 0 0.396078 0 0 0 0.189957 0"/>
<feBlend mode="multiply" in2="BackgroundImageFix" result="effect1_dropShadow_2004_594"/>
<feColorMatrix in="SourceAlpha" type="matrix" values="0 0 0 0 0 0 0 0 0 0 0 0 0 0 0 0 0 0 127 0" result="hardAlpha"/>
<feOffset dy="0.189277"/>
<feGaussianBlur stdDeviation="0.0790384"/>
<feColorMatrix type="matrix" values="0 0 0 0 0.0509804 0 0 0 0 0.121569 0 0 0 0 0.396078 0 0 0 0.368551 0"/>
<feBlend mode="multiply" in2="effect1_dropShadow_2004_594" result="effect2_dropShadow_2004_594"/>
<feColorMatrix in="SourceAlpha" type="matrix" values="0 0 0 0 0 0 0 0 0 0 0 0 0 0 0 0 0 0 127 0" result="hardAlpha"/>
<feOffset dy="0.29109"/>
<feGaussianBlur stdDeviation="0.135364"/>
<feColorMatrix type="matrix" values="0 0 0 0 0.0509804 0 0 0 0 0.121569 0 0 0 0 0.396078 0 0 0 0.3 0"/>
<feBlend mode="multiply" in2="effect2_dropShadow_2004_594" result="effect3_dropShadow_2004_594"/>
<feColorMatrix in="SourceAlpha" type="matrix" values="0 0 0 0 0 0 0 0 0 0 0 0 0 0 0 0 0 0 127 0" result="hardAlpha"/>
<feOffset dy="0.427121"/>
<feGaussianBlur stdDeviation="0.429883"/>
<feColorMatrix type="matrix" values="0 0 0 0 0.0509804 0 0 0 0 0.121569 0 0 0 0 0.396078 0 0 0 0.3 0"/>
<feBlend mode="multiply" in2="effect3_dropShadow_2004_594" result="effect4_dropShadow_2004_594"/>
<feColorMatrix in="SourceAlpha" type="matrix" values="0 0 0 0 0 0 0 0 0 0 0 0 0 0 0 0 0 0 127 0" result="hardAlpha"/>
<feOffset dy="0.664616"/>
<feGaussianBlur stdDeviation="0.799219"/>
<feColorMatrix type="matrix" values="0 0 0 0 0.0509804 0 0 0 0 0.121569 0 0 0 0 0.396078 0 0 0 0.29 0"/>
<feBlend mode="overlay" in2="effect4_dropShadow_2004_594" result="effect5_dropShadow_2004_594"/>
<feColorMatrix in="SourceAlpha" type="matrix" values="0 0 0 0 0 0 0 0 0 0 0 0 0 0 0 0 0 0 127 0" result="hardAlpha"/>
<feOffset dy="1.75781"/>
<feGaussianBlur stdDeviation="1.40625"/>
<feColorMatrix type="matrix" values="0 0 0 0 0.0509804 0 0 0 0 0.121569 0 0 0 0 0.396078 0 0 0 0.45 0"/>
<feBlend mode="multiply" in2="effect5_dropShadow_2004_594" result="effect6_dropShadow_2004_594"/>
<feBlend mode="normal" in="SourceGraphic" in2="effect6_dropShadow_2004_594" result="shape"/>
</filter>
<linearGradient id="paint0_linear_2004_594" x1="20.0016" y1="4.90625" x2="20.0016" y2="37.127" gradientUnits="userSpaceOnUse">
<stop stop-color="#A4C1FF"/>
<stop offset="1" stop-color="#0E78F9"/>
</linearGradient>
<linearGradient id="paint1_linear_2004_594" x1="16.9531" y1="14.9062" x2="16.9531" y2="27.0548" gradientUnits="userSpaceOnUse">
<stop stop-color="white"/>
<stop offset="1" stop-color="#C5D4F7"/>
</linearGradient>
<linearGradient id="paint2_linear_2004_594" x1="16.9531" y1="14.9062" x2="16.9531" y2="27.0547" gradientUnits="userSpaceOnUse">
<stop stop-color="white"/>
<stop offset="1" stop-color="#637ACA"/>
</linearGradient>
<linearGradient id="paint3_linear_2004_594" x1="28.3008" y1="15.0234" x2="28.3008" y2="26.9673" gradientUnits="userSpaceOnUse">
<stop stop-color="white"/>
<stop offset="1" stop-color="#C5D4F7"/>
</linearGradient>
<linearGradient id="paint4_linear_2004_594" x1="28.3008" y1="15.023" x2="28.3008" y2="26.9669" gradientUnits="userSpaceOnUse">
<stop stop-color="white"/>
<stop offset="1" stop-color="#637ACA"/>
</linearGradient>
<linearGradient id="paint5_linear_2004_594" x1="87" y1="-3.45026e-07" x2="85" y2="42" gradientUnits="userSpaceOnUse">
<stop stop-color="#5896E7"/>
<stop offset="0.991496" stop-color="#68A6F7"/>
</linearGradient>
</defs>
</svg>
